<svg width="403" height="672" viewBox="0 0 403 672" fill="none" xmlns="http://www.w3.org/2000/svg">
<path d="M397.359 199.619C403.353 -57.8792 49.8594 -33.8826 6.85998 121.113C-6.63945 154.614 57.0122 217.227 81.8671 187.114C166.884 84.1144 236.866 117.115 271.866 140.614C306.866 164.114 293.366 229.614 271.866 248.114C227.866 268.614 174.866 303.615 166.866 359.115V465.119C166.866 522.119 271.866 520.119 271.866 465.119V366.119C266.359 353.619 393.054 384.569 397.359 199.619Z" fill="#E54144"/>
<path d="M225.359 666.119C156.359 666.119 137.359 561.619 225.359 561.619C297.859 561.619 311.359 666.119 225.359 666.119Z" fill="#E54144"/>
<path d="M397.359 199.619C403.353 -57.8792 49.8594 -33.8826 6.85998 121.113C-6.63945 154.614 57.0122 217.227 81.8671 187.114C166.884 84.1144 236.866 117.115 271.866 140.614C306.866 164.114 293.366 229.614 271.866 248.114C227.866 268.614 174.866 303.615 166.866 359.115V465.119C166.866 522.119 271.866 520.119 271.866 465.119V366.119C266.359 353.619 393.054 384.569 397.359 199.619Z" stroke="#E54144" stroke-width="10"/>
<path d="M225.359 666.119C156.359 666.119 137.359 561.619 225.359 561.619C297.859 561.619 311.359 666.119 225.359 666.119Z" stroke="#E54144" stroke-width="10"/>
</svg>
