<svg width="1589" height="1817" viewBox="0 0 1589 1817" fill="none" xmlns="http://www.w3.org/2000/svg">
<path d="M634.912 1254.12C92.5122 1154.52 149.579 672.949 245.912 444.615C47.1122 338.215 109.746 172.949 165.912 103.615C361.912 -72.3847 489.246 54.9486 528.412 140.615C852.412 12.6153 1090.75 109.949 1169.41 174.615C1320.21 18.6152 1458.25 93.9485 1508.41 151.115C1664.81 321.515 1529.91 456.782 1442.91 503.115C1619.31 1045.92 1312.33 1217.33 1108 1244.5L971.498 1352L634.912 1254.12Z" fill="#FEFEFE" stroke="black"/>
<path d="M473.579 633.017C444.779 760.217 525.245 781.016 569.079 779.016C636.079 766.516 702.079 749.016 675.079 633.017C646.216 509.015 486.824 574.519 473.579 633.017Z" fill="#FFE6E8"/>
<path d="M1282.08 704.015C1265.57 804.514 1343.08 846.016 1392.58 842.015C1533.08 830.657 1495.58 647.517 1434.08 626.016C1372.58 604.514 1298.58 603.516 1282.08 704.015Z" fill="#FFE6E8"/>
<path d="M473.579 633.017C444.779 760.217 525.245 781.016 569.079 779.016C636.079 766.516 702.079 749.016 675.079 633.017C646.216 509.015 486.824 574.519 473.579 633.017Z" stroke="#FFE6E8" stroke-width="2"/>
<path d="M1282.08 704.015C1265.57 804.514 1343.08 846.016 1392.58 842.015C1533.08 830.657 1495.58 647.517 1434.08 626.016C1372.58 604.514 1298.58 603.516 1282.08 704.015Z" stroke="#FFE6E8" stroke-width="2"/>
<path d="M1027.11 596.5C997.443 576.333 957.109 534.5 1033.11 528.5C1066.78 532.167 1112.71 550.9 1027.11 596.5Z" fill="#1F4371" stroke="#1F4371" stroke-width="2"/>
<path d="M1043.23 580.083C1049.93 597.52 1063.07 619.02 1079.95 629.565C1088.07 634.638 1096.75 637.008 1106.16 635.62C1115.71 634.213 1127.33 628.743 1140.79 615.646L1156.13 631.418C1140.39 646.721 1124.75 655.118 1109.37 657.385C1093.87 659.671 1079.98 655.523 1068.29 648.225C1052.3 638.23 1039.92 622.063 1031.39 606.601C1007.77 639.4 982.523 652.86 958.349 653.33C931.137 653.859 909.278 637.771 897.491 623.553L914.429 609.512C923.642 620.626 939.683 631.688 957.921 631.334C975.385 630.995 998.955 620.03 1023.49 578.443L1035.05 558.832L1043.23 580.083ZM896.922 482.319L725.422 505.319L722.498 483.515L893.998 460.515L896.922 482.319ZM1332.74 481L1330.18 500.834L1148.68 477.334L1151.24 457.5L1332.74 481Z" fill="#1F4371"/>
<path d="M303.499 348.278L413.412 206.115C372.212 124.515 306.579 153.782 278.912 178.615C213.312 242.615 271.332 323.778 303.499 348.278Z" fill="#9DD0FA"/>
<path d="M1386 391.278L1296.41 255.115C1326.81 193.515 1390.75 219.782 1418.91 240.615C1472.91 306.215 1417 367.445 1386 391.278Z" fill="#9DD0FA"/>
<path d="M303.499 348.278L413.412 206.115C372.212 124.515 306.579 153.782 278.912 178.615C213.312 242.615 271.332 323.778 303.499 348.278Z" stroke="#9DD0FA" stroke-width="2"/>
<path d="M1386 391.278L1296.41 255.115C1326.81 193.515 1390.75 219.782 1418.91 240.615C1472.91 306.215 1417 367.445 1386 391.278Z" stroke="#9DD0FA" stroke-width="2"/>
<path d="M185.694 58.8147C224.871 24.7532 290.082 -3.52984 356.822 0.972946C422.713 5.41859 488.748 41.7557 531.841 132.293C594.841 103.531 697.729 72.9477 813.109 68.7942C928.867 64.6272 1057.94 87.0528 1171.83 165.442C1202.33 129.167 1252.69 87.6863 1312.79 73.0052C1345.35 65.0517 1380.79 64.9753 1417.17 77.9368C1453.5 90.8826 1490.08 116.584 1525.38 159.087C1560.67 201.588 1579.37 242.358 1585.7 280.607C1592.04 318.897 1585.87 353.965 1572.52 384.809C1547.73 442.1 1498.23 484.865 1457.48 508.626C1476.14 561.094 1495.48 646.059 1497.09 742.369C1498.79 844.387 1480.62 959.934 1419.89 1063.19L1419.56 1063.76L1419.16 1064.28C1395.79 1094.98 1364.91 1136.09 1317.19 1171.82C1269.83 1207.28 1206.26 1237.22 1117.31 1247.58L969.744 1362.19L962.979 1367.44L956.228 1362.17L844.756 1275.14C818.091 1272.59 730.232 1264.54 639.549 1251.37C592.217 1244.5 543.903 1236.2 502.994 1226.51C462.675 1216.97 427.714 1205.68 408.549 1192.09V1192.09C308.376 1122.75 191.073 987.799 165.162 807.669C149.959 701.977 166.351 581.712 234.912 451.093C190.252 423.034 137.236 366.078 113.549 297.584C100.849 260.862 96.4636 220.468 106.696 179.348C116.943 138.171 141.639 97.1181 185.694 58.8147ZM355.342 22.9231C295.179 18.8641 235.539 44.6305 200.129 75.4173C158.979 111.194 137.05 148.474 128.045 184.661C119.026 220.905 122.759 256.908 134.34 290.394C156.056 353.186 204.952 405.876 245.426 431.713C294.267 344.543 366.433 252.923 467.901 158.079L471.072 155.116H487.803V177.116H479.762C223.854 417.608 162.317 633.373 186.937 804.536C211.566 975.752 322.776 1105.18 418.902 1172.49L421.171 1174.07L421.224 1174.11L421.276 1174.14C436.511 1184.95 467.469 1195.49 508.063 1205.11C548.068 1214.58 595.663 1222.77 642.71 1229.6C725.02 1241.55 805.006 1249.26 838.626 1252.46L850.067 1253.55L853.247 1253.86L855.767 1255.83L963.015 1339.56L1106.25 1228.31L1108.7 1226.41L1111.79 1226.07C1198.41 1216.48 1259.2 1187.76 1304 1154.22C1348.71 1120.73 1377.87 1082.2 1401.25 1051.49C1459.07 952.881 1476.75 841.908 1475.09 742.737C1473.43 643.346 1452.35 556.609 1433.63 507.535L1430.18 498.492L1438.72 493.919C1478.11 472.814 1528.42 431.327 1552.33 376.072C1564.2 348.649 1569.57 317.854 1564 284.2C1558.42 250.503 1541.75 213.242 1508.45 173.143C1475.15 133.047 1441.69 110.03 1409.78 98.6604C1377.92 87.3072 1346.9 87.3184 1318.01 94.3763C1264.48 107.451 1218.33 144.744 1189.74 178.329C1194.94 182.24 1200.1 186.275 1205.23 190.434C1206.12 191.159 1207.01 191.887 1207.9 192.619L1193.95 209.632L1193.92 209.61L1191.36 207.514C1183.5 201.131 1175.54 195.059 1167.5 189.286C1056.6 109.674 929.191 86.6293 813.9 90.7796C698.523 94.933 596.061 126.313 536.102 154.566L535.407 153.093L534.912 153.617L527.347 161.602L517.847 152.602L516.258 151.097L515.366 149.098C475.524 59.7892 414.484 26.9135 355.342 22.9231Z" fill="#1F4371"/>
<path d="M185.694 58.8147L185.366 58.4374V58.4374L185.694 58.8147ZM356.822 0.972946L356.856 0.47408V0.47408L356.822 0.972946ZM531.841 132.293L531.389 132.508L531.601 132.952L532.048 132.748L531.841 132.293ZM813.109 68.7942L813.091 68.2946V68.2946L813.109 68.7942ZM1171.83 165.442L1171.55 165.854L1171.92 166.111L1172.21 165.763L1171.83 165.442ZM1312.79 73.0052L1312.67 72.5195V72.5195L1312.79 73.0052ZM1417.17 77.9368L1417.34 77.4658V77.4658L1417.17 77.9368ZM1525.38 159.087L1525.76 158.768V158.768L1525.38 159.087ZM1585.7 280.607L1586.19 280.525V280.525L1585.7 280.607ZM1572.52 384.809L1572.98 385.007V385.007L1572.52 384.809ZM1457.48 508.626L1457.22 508.194L1456.87 508.403L1457.01 508.794L1457.48 508.626ZM1497.09 742.369L1497.59 742.361V742.361L1497.09 742.369ZM1419.89 1063.19L1419.46 1062.94V1062.94L1419.89 1063.19ZM1419.56 1063.76L1419.96 1064.06L1419.98 1064.04L1419.99 1064.01L1419.56 1063.76ZM1419.16 1064.28L1418.77 1063.98L1418.77 1063.98L1419.16 1064.28ZM1317.19 1171.82L1317.49 1172.22V1172.22L1317.19 1171.82ZM1117.31 1247.58L1117.25 1247.08L1117.11 1247.1L1117 1247.18L1117.31 1247.58ZM969.744 1362.19L970.051 1362.58V1362.58L969.744 1362.19ZM962.979 1367.44L962.672 1367.83L962.979 1368.07L963.286 1367.84L962.979 1367.44ZM956.228 1362.17L955.92 1362.56H955.92L956.228 1362.17ZM844.756 1275.14L845.064 1274.75L844.949 1274.66L844.803 1274.65L844.756 1275.14ZM639.549 1251.37L639.621 1250.87V1250.87L639.549 1251.37ZM502.994 1226.51L502.879 1227V1227L502.994 1226.51ZM408.549 1192.09H408.049V1192.35L408.26 1192.5L408.549 1192.09ZM408.549 1192.09H409.049V1191.83L408.833 1191.68L408.549 1192.09ZM165.162 807.669L164.667 807.74V807.74L165.162 807.669ZM234.912 451.093L235.355 451.325L235.57 450.916L235.178 450.67L234.912 451.093ZM113.549 297.584L113.076 297.748V297.748L113.549 297.584ZM106.696 179.348L106.211 179.227H106.211L106.696 179.348ZM355.342 22.9231L355.375 22.4243V22.4243L355.342 22.9231ZM200.129 75.4173L199.801 75.04V75.04L200.129 75.4173ZM128.045 184.661L127.56 184.541H127.56L128.045 184.661ZM134.34 290.394L133.867 290.557V290.557L134.34 290.394ZM245.426 431.713L245.157 432.135L245.603 432.42L245.862 431.958L245.426 431.713ZM467.901 158.079L467.56 157.714V157.714L467.901 158.079ZM471.072 155.116V154.616H470.875L470.731 154.75L471.072 155.116ZM487.803 155.116H488.303V154.616H487.803V155.116ZM487.803 177.116V177.616H488.303V177.116H487.803ZM479.762 177.116V176.616H479.564L479.419 176.751L479.762 177.116ZM186.937 804.536L186.443 804.608V804.608L186.937 804.536ZM418.902 1172.49L418.616 1172.9L418.617 1172.9L418.902 1172.49ZM421.171 1174.07L420.885 1174.48L420.888 1174.48L421.171 1174.07ZM421.224 1174.11L421.516 1173.7L421.506 1173.69L421.224 1174.11ZM421.276 1174.14L420.984 1174.55L420.987 1174.55L421.276 1174.14ZM508.063 1205.11L508.179 1204.62V1204.62L508.063 1205.11ZM642.71 1229.6L642.638 1230.09V1230.09L642.71 1229.6ZM838.626 1252.46L838.673 1251.96H838.673L838.626 1252.46ZM850.067 1253.55L850.116 1253.05L850.115 1253.05L850.067 1253.55ZM853.247 1253.86L853.555 1253.47L853.44 1253.38L853.296 1253.36L853.247 1253.86ZM855.767 1255.83L856.074 1255.43L856.074 1255.43L855.767 1255.83ZM963.015 1339.56L962.707 1339.95L963.014 1340.19L963.321 1339.95L963.015 1339.56ZM1106.25 1228.31L1105.94 1227.92V1227.92L1106.25 1228.31ZM1108.7 1226.41L1108.65 1225.91L1108.51 1225.93L1108.4 1226.01L1108.7 1226.41ZM1111.79 1226.07L1111.73 1225.57H1111.73L1111.79 1226.07ZM1304 1154.22L1303.7 1153.81V1153.81L1304 1154.22ZM1401.25 1051.49L1401.65 1051.79L1401.67 1051.76L1401.69 1051.74L1401.25 1051.49ZM1475.09 742.737L1474.59 742.745L1475.09 742.737ZM1433.63 507.535L1434.1 507.357V507.357L1433.63 507.535ZM1430.18 498.492L1429.95 498.051L1429.56 498.259L1429.72 498.67L1430.18 498.492ZM1438.72 493.919L1438.48 493.479V493.479L1438.72 493.919ZM1552.33 376.072L1552.79 376.27V376.27L1552.33 376.072ZM1564 284.2L1564.49 284.118V284.118L1564 284.2ZM1508.45 173.143L1508.83 172.823V172.823L1508.45 173.143ZM1409.78 98.6604L1409.95 98.1895V98.1895L1409.78 98.6604ZM1318.01 94.3763L1317.89 93.8905V93.8905L1318.01 94.3763ZM1189.74 178.329L1189.36 178.005L1189.01 178.41L1189.44 178.729L1189.74 178.329ZM1205.23 190.434L1205.54 190.046V190.046L1205.23 190.434ZM1207.9 192.619L1208.29 192.936L1208.6 192.55L1208.22 192.233L1207.9 192.619ZM1193.95 209.632L1193.63 210.018L1194.02 210.336L1194.34 209.949L1193.95 209.632ZM1193.92 209.61L1194.24 209.223L1194.24 209.222L1193.92 209.61ZM1191.36 207.514L1191.68 207.127L1191.67 207.126L1191.36 207.514ZM1167.5 189.286L1167.79 188.88V188.88L1167.5 189.286ZM813.9 90.7796L813.882 90.2799V90.2799L813.9 90.7796ZM536.102 154.566L535.649 154.779L535.862 155.231L536.315 155.018L536.102 154.566ZM535.407 153.093L535.859 152.88L535.547 152.217L535.044 152.749L535.407 153.093ZM534.912 153.617L535.275 153.96L535.275 153.96L534.912 153.617ZM527.347 161.602L527.003 161.965L527.366 162.309L527.71 161.946L527.347 161.602ZM517.847 152.602L518.191 152.239L518.19 152.239L517.847 152.602ZM516.258 151.097L515.801 151.301L515.842 151.392L515.914 151.46L516.258 151.097ZM515.366 149.098L515.823 148.894V148.894L515.366 149.098ZM185.694 58.8147L186.022 59.1921C225.114 25.2049 290.198 -3.02088 356.789 1.47181L356.822 0.972946L356.856 0.47408C289.966 -4.03879 224.629 24.3015 185.366 58.4374L185.694 58.8147ZM356.822 0.972946L356.789 1.47181C422.491 5.90473 488.371 42.1263 531.389 132.508L531.841 132.293L532.292 132.078C489.125 41.3852 422.935 4.93245 356.856 0.47408L356.822 0.972946ZM531.841 132.293L532.048 132.748C594.994 104.011 697.818 73.4449 813.127 69.2939L813.109 68.7942L813.091 68.2946C697.641 72.4506 594.688 103.051 531.633 131.838L531.841 132.293ZM813.109 68.7942L813.127 69.2939C928.811 65.1295 1057.77 87.5419 1171.55 165.854L1171.83 165.442L1172.11 165.03C1058.11 86.5637 928.924 64.1248 813.091 68.2946L813.109 68.7942ZM1171.83 165.442L1172.21 165.763C1202.67 129.538 1252.94 88.1385 1312.91 73.4909L1312.79 73.0052L1312.67 72.5195C1252.43 87.2342 1201.99 128.796 1171.45 165.12L1171.83 165.442ZM1312.79 73.0052L1312.91 73.4909C1345.39 65.5577 1380.73 65.4828 1417 78.4078L1417.17 77.9368L1417.34 77.4658C1380.86 64.4677 1345.32 64.5456 1312.67 72.5195L1312.79 73.0052ZM1417.17 77.9368L1417 78.4078C1453.23 91.3178 1489.74 116.958 1524.99 159.407L1525.38 159.087L1525.76 158.768C1490.41 116.21 1453.77 90.4475 1417.34 77.4658L1417.17 77.9368ZM1525.38 159.087L1524.99 159.407C1560.24 201.853 1578.89 242.543 1585.21 280.688L1585.7 280.607L1586.19 280.525C1579.85 242.172 1561.1 201.323 1525.76 158.768L1525.38 159.087ZM1585.7 280.607L1585.21 280.688C1591.53 318.874 1585.37 353.844 1572.06 384.61L1572.52 384.809L1572.98 385.007C1586.36 354.086 1592.55 318.921 1586.19 280.525L1585.7 280.607ZM1572.52 384.809L1572.06 384.61C1547.33 441.772 1497.92 484.466 1457.22 508.194L1457.48 508.626L1457.73 509.058C1498.54 485.264 1548.13 442.428 1572.98 385.007L1572.52 384.809ZM1457.48 508.626L1457.01 508.794C1475.65 561.213 1494.98 646.124 1496.59 742.378L1497.09 742.369L1497.59 742.361C1495.97 645.994 1476.63 560.975 1457.95 508.459L1457.48 508.626ZM1497.09 742.369L1496.59 742.378C1498.29 844.335 1480.13 959.783 1419.46 1062.94L1419.89 1063.19L1420.33 1063.45C1481.11 960.085 1499.29 844.439 1497.59 742.361L1497.09 742.369ZM1419.89 1063.19L1419.46 1062.94L1419.13 1063.5L1419.56 1063.76L1419.99 1064.01L1420.33 1063.45L1419.89 1063.19ZM1419.56 1063.76L1419.16 1063.45L1418.77 1063.98L1419.16 1064.28L1419.56 1064.58L1419.96 1064.06L1419.56 1063.76ZM1419.16 1064.28L1418.77 1063.98C1395.39 1094.68 1364.55 1135.73 1316.89 1171.42L1317.19 1171.82L1317.49 1172.22C1365.27 1136.44 1396.19 1095.28 1419.56 1064.58L1419.16 1064.28ZM1317.19 1171.82L1316.89 1171.42C1269.6 1206.83 1206.11 1236.73 1117.25 1247.08L1117.31 1247.58L1117.36 1248.08C1206.41 1237.71 1270.07 1207.73 1317.49 1172.22L1317.19 1171.82ZM1117.31 1247.58L1117 1247.18L969.437 1361.79L969.744 1362.19L970.051 1362.58L1117.61 1247.97L1117.31 1247.58ZM969.744 1362.19L969.437 1361.79L962.673 1367.05L962.979 1367.44L963.286 1367.84L970.051 1362.58L969.744 1362.19ZM962.979 1367.44L963.287 1367.05L956.535 1361.78L956.228 1362.17L955.92 1362.56L962.672 1367.83L962.979 1367.44ZM956.228 1362.17L956.535 1361.78L845.064 1274.75L844.756 1275.14L844.448 1275.54L955.92 1362.56L956.228 1362.17ZM844.756 1275.14L844.803 1274.65C818.137 1272.09 730.29 1264.04 639.621 1250.87L639.549 1251.37L639.477 1251.86C730.174 1265.03 818.044 1273.09 844.708 1275.64L844.756 1275.14ZM639.549 1251.37L639.621 1250.87C592.295 1244 543.997 1235.71 503.109 1226.03L502.994 1226.51L502.879 1227C543.808 1236.69 592.138 1244.99 639.477 1251.86L639.549 1251.37ZM502.994 1226.51L503.109 1226.03C462.785 1216.48 427.914 1205.21 408.838 1191.68L408.549 1192.09L408.26 1192.5C427.514 1206.15 462.566 1217.46 502.879 1227L502.994 1226.51ZM408.549 1192.09H409.049V1192.09H408.549H408.049V1192.09H408.549ZM408.549 1192.09L408.833 1191.68C308.742 1122.4 191.543 987.555 165.657 807.598L165.162 807.669L164.667 807.74C190.603 988.044 308.011 1123.11 408.264 1192.5L408.549 1192.09ZM165.162 807.669L165.657 807.598C150.47 702.016 166.839 581.857 235.355 451.325L234.912 451.093L234.469 450.861C165.862 581.568 149.448 701.939 164.667 807.74L165.162 807.669ZM234.912 451.093L235.178 450.67C190.602 422.663 137.667 365.793 114.021 297.421L113.549 297.584L113.076 297.748C136.806 366.362 189.902 423.405 234.646 451.516L234.912 451.093ZM113.549 297.584L114.021 297.421C101.347 260.772 96.9764 220.478 107.181 179.469L106.696 179.348L106.211 179.227C95.9508 220.458 100.351 260.952 113.076 297.748L113.549 297.584ZM106.696 179.348L107.181 179.469C117.4 138.406 142.033 97.438 186.022 59.1921L185.694 58.8147L185.366 58.4374C141.245 96.7982 116.486 137.937 106.211 179.227L106.696 179.348ZM355.342 22.9231L355.375 22.4243C295.064 18.3552 235.297 44.1787 199.801 75.04L200.129 75.4173L200.457 75.7946C235.782 45.0823 295.295 19.3731 355.308 23.422L355.342 22.9231ZM200.129 75.4173L199.801 75.04C158.585 110.874 136.593 148.24 127.56 184.541L128.045 184.661L128.53 184.782C137.507 148.708 159.373 111.514 200.457 75.7946L200.129 75.4173ZM128.045 184.661L127.56 184.541C118.513 220.895 122.261 256.998 133.867 290.557L134.34 290.394L134.812 290.23C123.257 256.818 119.539 220.915 128.53 184.782L128.045 184.661ZM134.34 290.394L133.867 290.557C155.625 353.47 204.602 406.245 245.157 432.135L245.426 431.713L245.695 431.292C205.303 405.507 156.487 352.902 134.812 290.23L134.34 290.394ZM245.426 431.713L245.862 431.958C294.674 344.84 366.805 253.26 468.243 158.445L467.901 158.079L467.56 157.714C366.061 252.586 293.86 344.246 244.99 431.469L245.426 431.713ZM467.901 158.079L468.243 158.445L471.414 155.481L471.072 155.116L470.731 154.75L467.56 157.714L467.901 158.079ZM471.072 155.116V155.616H487.803V155.116V154.616H471.072V155.116ZM487.803 155.116H487.303V177.116H487.803H488.303V155.116H487.803ZM487.803 177.116V176.616H479.762V177.116V177.616H487.803V177.116ZM479.762 177.116L479.419 176.751C223.428 417.322 161.793 633.24 186.443 804.608L186.937 804.536L187.432 804.465C162.841 633.506 224.279 417.894 480.104 177.48L479.762 177.116ZM186.937 804.536L186.443 804.608C211.095 975.996 322.409 1105.53 418.616 1172.9L418.902 1172.49L419.189 1172.08C323.143 1104.83 212.036 975.509 187.432 804.465L186.937 804.536ZM418.902 1172.49L418.617 1172.9L420.885 1174.48L421.171 1174.07L421.457 1173.66L419.188 1172.08L418.902 1172.49ZM421.171 1174.07L420.888 1174.48L420.941 1174.52L421.224 1174.11L421.506 1173.69L421.453 1173.66L421.171 1174.07ZM421.224 1174.11L420.931 1174.51L420.984 1174.55L421.276 1174.14L421.569 1173.74L421.516 1173.7L421.224 1174.11ZM421.276 1174.14L420.987 1174.55C428.661 1179.99 440.261 1185.35 454.994 1190.54C469.734 1195.74 487.641 1200.78 507.948 1205.59L508.063 1205.11L508.179 1204.62C487.892 1199.82 470.022 1194.78 455.326 1189.6C440.623 1184.42 429.126 1179.1 421.566 1173.74L421.276 1174.14ZM508.063 1205.11L507.948 1205.59C547.974 1215.07 595.585 1223.26 642.638 1230.09L642.71 1229.6L642.782 1229.1C595.741 1222.27 548.163 1214.09 508.179 1204.62L508.063 1205.11ZM642.71 1229.6L642.638 1230.09C724.962 1242.05 804.958 1249.76 838.579 1252.96L838.626 1252.46L838.673 1251.96C805.055 1248.76 725.079 1241.05 642.782 1229.1L642.71 1229.6ZM838.626 1252.46L838.578 1252.96L850.02 1254.05L850.067 1253.55L850.115 1253.05L838.673 1251.96L838.626 1252.46ZM850.067 1253.55L850.019 1254.05L853.198 1254.36L853.247 1253.86L853.296 1253.36L850.116 1253.05L850.067 1253.55ZM853.247 1253.86L852.939 1254.26L855.459 1256.22L855.767 1255.83L856.074 1255.43L853.555 1253.47L853.247 1253.86ZM855.767 1255.83L855.459 1256.22L962.707 1339.95L963.015 1339.56L963.322 1339.16L856.074 1255.43L855.767 1255.83ZM963.015 1339.56L963.321 1339.95L1106.56 1228.71L1106.25 1228.31L1105.94 1227.92L962.708 1339.16L963.015 1339.56ZM1106.25 1228.31L1106.56 1228.71L1109.01 1226.8L1108.7 1226.41L1108.4 1226.01L1105.94 1227.92L1106.25 1228.31ZM1108.7 1226.41L1108.76 1226.9L1111.84 1226.56L1111.79 1226.07L1111.73 1225.57L1108.65 1225.91L1108.7 1226.41ZM1111.79 1226.07L1111.84 1226.56C1198.55 1216.97 1259.43 1188.22 1304.3 1154.62L1304 1154.22L1303.7 1153.81C1258.97 1187.31 1198.26 1216 1111.73 1225.57L1111.79 1226.07ZM1304 1154.22L1304.3 1154.62C1349.08 1121.08 1378.27 1082.5 1401.65 1051.79L1401.25 1051.49L1400.86 1051.18C1377.47 1081.9 1348.35 1120.38 1303.7 1153.81L1304 1154.22ZM1401.25 1051.49L1401.69 1051.74C1459.56 953.032 1477.25 841.96 1475.59 742.728L1475.09 742.737L1474.59 742.745C1476.25 841.856 1458.58 952.731 1400.82 1051.23L1401.25 1051.49ZM1475.09 742.737L1475.59 742.728C1473.93 643.279 1452.84 556.484 1434.1 507.357L1433.63 507.535L1433.17 507.714C1451.87 556.734 1472.93 643.414 1474.59 742.745L1475.09 742.737ZM1433.63 507.535L1434.1 507.357L1430.65 498.313L1430.18 498.492L1429.72 498.67L1433.17 507.714L1433.63 507.535ZM1430.18 498.492L1430.42 498.932L1438.95 494.36L1438.72 493.919L1438.48 493.479L1429.95 498.051L1430.18 498.492ZM1438.72 493.919L1438.95 494.36C1478.41 473.222 1528.82 431.662 1552.79 376.27L1552.33 376.072L1551.87 375.873C1528.02 430.991 1477.81 472.407 1438.48 493.479L1438.72 493.919ZM1552.33 376.072L1552.79 376.27C1564.69 348.77 1570.08 317.878 1564.49 284.118L1564 284.2L1563.5 284.281C1569.06 317.83 1563.7 348.528 1551.87 375.873L1552.33 376.072ZM1564 284.2L1564.49 284.118C1558.89 250.318 1542.18 212.977 1508.83 172.823L1508.45 173.143L1508.07 173.462C1541.32 213.507 1557.94 250.688 1563.5 284.281L1564 284.2ZM1508.45 173.143L1508.83 172.823C1475.49 132.673 1441.96 109.594 1409.95 98.1895L1409.78 98.6604L1409.62 99.1314C1441.42 110.465 1474.81 133.421 1508.07 173.462L1508.45 173.143ZM1409.78 98.6604L1409.95 98.1895C1377.99 86.7997 1346.87 86.8123 1317.89 93.8905L1318.01 94.3763L1318.13 94.862C1346.94 87.8245 1377.85 87.8148 1409.62 99.1314L1409.78 98.6604ZM1318.01 94.3763L1317.89 93.8905C1264.23 106.999 1217.99 144.371 1189.36 178.005L1189.74 178.329L1190.12 178.654C1218.67 145.116 1264.74 107.904 1318.13 94.862L1318.01 94.3763ZM1189.74 178.329L1189.44 178.729C1194.63 182.636 1199.79 186.667 1204.91 190.822L1205.23 190.434L1205.54 190.046C1200.41 185.882 1195.24 181.844 1190.04 177.93L1189.74 178.329ZM1205.23 190.434L1204.91 190.822C1205.8 191.546 1206.69 192.274 1207.58 193.006L1207.9 192.619L1208.22 192.233C1207.33 191.5 1206.43 190.771 1205.54 190.046L1205.23 190.434ZM1207.9 192.619L1207.51 192.302L1193.57 209.315L1193.95 209.632L1194.34 209.949L1208.29 192.936L1207.9 192.619ZM1193.95 209.632L1194.27 209.246L1194.24 209.223L1193.92 209.61L1193.61 209.996L1193.63 210.018L1193.95 209.632ZM1193.92 209.61L1194.24 209.222L1191.68 207.127L1191.36 207.514L1191.04 207.901L1193.61 209.997L1193.92 209.61ZM1191.36 207.514L1191.67 207.126C1183.8 200.737 1175.84 194.659 1167.79 188.88L1167.5 189.286L1167.21 189.693C1175.24 195.46 1183.19 201.526 1191.04 207.902L1191.36 207.514ZM1167.5 189.286L1167.79 188.88C1056.77 109.186 929.249 86.1269 813.882 90.2799L813.9 90.7796L813.918 91.2793C929.132 87.1318 1056.42 110.163 1167.21 189.693L1167.5 189.286ZM813.9 90.7796L813.882 90.2799C698.432 94.4359 595.905 125.834 535.888 154.113L536.102 154.566L536.315 155.018C596.217 126.792 698.613 95.4301 813.918 91.2793L813.9 90.7796ZM536.102 154.566L536.554 154.352L535.859 152.88L535.407 153.093L534.955 153.306L535.649 154.779L536.102 154.566ZM535.407 153.093L535.044 152.749L534.549 153.273L534.912 153.617L535.275 153.96L535.77 153.437L535.407 153.093ZM534.912 153.617L534.549 153.273L526.984 161.258L527.347 161.602L527.71 161.946L535.275 153.96L534.912 153.617ZM527.347 161.602L527.691 161.239L518.191 152.239L517.847 152.602L517.503 152.965L527.003 161.965L527.347 161.602ZM517.847 152.602L518.19 152.239L516.602 150.734L516.258 151.097L515.914 151.46L517.503 152.965L517.847 152.602ZM516.258 151.097L516.714 150.893L515.823 148.894L515.366 149.098L514.91 149.302L515.801 151.301L516.258 151.097ZM515.366 149.098L515.823 148.894C475.909 59.4268 414.713 26.4279 355.375 22.4243L355.342 22.9231L355.308 23.422C414.254 27.3992 475.138 60.1517 514.91 149.302L515.366 149.098Z" fill="#1F4371"/>
<path d="M1280.41 256.615C1306.41 275.115 1363.61 328.115 1384.41 392.115" stroke="#1F4371" stroke-width="22"/>
<path d="M331.498 1116.5C353.998 1138 361.072 1241.38 397.998 1183.5C477.598 1238.3 795.165 1272 842.498 1274.5L963.998 1363.5L1117 1245.5C1226.2 1239.5 1298.76 1171.62 1350.42 1129.62C1525.62 1282.42 1547.42 1539.62 1536.42 1649.12C1398.82 1735.92 1327.09 1752.28 1308.42 1749.62C940.024 1874.82 512.924 1765.78 345.424 1695.62L353.424 1582.12C-29.776 1594.52 114.164 1316.83 127.497 1149C239.097 1164.2 304.165 1139.5 331.498 1116.5Z" fill="#4EA9FE"/>
<path d="M96.4857 847.544C-72.3143 965.544 45.819 1094.04 125.986 1143.54C263.586 1167.14 326.986 1112.04 341.486 1081.54C377.486 1017.14 351.152 947.378 333.486 920.544C287.486 775.744 156.319 811.544 96.4857 847.544Z" fill="#FEFEFE" stroke="black"/>
<path d="M1352.41 1135.12C1422.91 1189.62 1558.51 1358.12 1536.91 1596.12V1652.62C1536.91 1652.62 1447.92 1707.95 1352.41 1745.12C1289.91 1769.44 1310.91 1745.12 1310.91 1652.62" stroke="#1F4371" stroke-width="20"/>
<path d="M122.523 1152C122.736 1145.96 123.037 1140.11 123.413 1134.5C51.9136 1134.5 45.3938 1063 19.4133 1018.5C-6.56726 973.999 21.9137 881.916 96.4131 845.5C203.413 793.197 277.246 812 313.913 878.5C361.331 964.5 379.414 1051 340.412 1072C340.979 1079.17 342.268 1086 344.21 1092.5C371.362 1183.39 325.114 1228 408.911 1182.61M1289.91 1548.62L1310.41 1751.11C884.012 1875.11 486.078 1763.12 340.412 1691.62L372.912 1510.12L355.412 1581.12C-33.0113 1585.75 116.61 1319.96 122.523 1152M122.523 1152C175.851 1156.83 294.847 1151.7 344.21 1092.5" stroke="#1F4371" stroke-width="20"/>
</svg>
